<mxfile host="65bd71144e" pages="2">
    <diagram name="Page-1" id="PWhBi2eLa0c5Ziiqytqa">
        <mxGraphModel dx="973" dy="607" grid="1" gridSize="10" guides="1" tooltips="1" connect="1" arrows="1" fold="1" page="1" pageScale="1" pageWidth="827" pageHeight="1169" math="0" shadow="0">
            <root>
                <mxCell id="0"/>
                <mxCell id="1" parent="0"/>
                <mxCell id="nECvfhJZmOqHD13zfMiE-59" value="&lt;font color=&quot;#ababab&quot;&gt;Diagramme de séquence- Découvre la liste de veícules d'occasion&amp;nbsp; -&amp;nbsp; Marcos Meneghetti - Graduate Fullstack&lt;/font&gt;" style="text;html=1;strokeColor=none;fillColor=none;align=center;verticalAlign=middle;whiteSpace=wrap;rounded=0;" parent="1" vertex="1">
                    <mxGeometry x="220" y="10" width="596" height="30" as="geometry"/>
                </mxCell>
                <mxCell id="6YT7Y5T16hpjYgcye57W-2" value="Visiteur&lt;br&gt;" style="shape=umlActor;verticalLabelPosition=bottom;verticalAlign=top;html=1;" parent="1" vertex="1">
                    <mxGeometry x="89" y="70" width="30" height="60" as="geometry"/>
                </mxCell>
                <mxCell id="6YT7Y5T16hpjYgcye57W-3" value="page Voitures" style="text;html=1;strokeColor=#6c8ebf;fillColor=#dae8fc;align=center;verticalAlign=middle;whiteSpace=wrap;rounded=0;" parent="1" vertex="1">
                    <mxGeometry x="336.01" y="90" width="75.6" height="30" as="geometry"/>
                </mxCell>
                <mxCell id="6YT7Y5T16hpjYgcye57W-7" value="Découvre liste véhicules d'occasion" style="text;html=1;strokeColor=none;fillColor=none;align=center;verticalAlign=middle;whiteSpace=wrap;rounded=0;" parent="1" vertex="1">
                    <mxGeometry x="165.5" y="180" width="145" height="30" as="geometry"/>
                </mxCell>
                <mxCell id="6YT7Y5T16hpjYgcye57W-69" value="" style="endArrow=classicThin;dashed=1;html=1;rounded=0;endFill=1;fontColor=#FF6666;strokeColor=#FF6666;" parent="1" edge="1">
                    <mxGeometry width="50" height="50" relative="1" as="geometry">
                        <mxPoint x="666.4000000000001" y="404.79999999999995" as="sourcePoint"/>
                        <mxPoint x="383.6" y="405" as="targetPoint"/>
                        <Array as="points">
                            <mxPoint x="538.4000000000001" y="404.79999999999995"/>
                        </Array>
                    </mxGeometry>
                </mxCell>
                <mxCell id="6YT7Y5T16hpjYgcye57W-91" value="Filtres" style="text;html=1;strokeColor=#6c8ebf;fillColor=#dae8fc;align=center;verticalAlign=middle;whiteSpace=wrap;rounded=0;" parent="1" vertex="1">
                    <mxGeometry x="630" y="90" width="75.6" height="30" as="geometry"/>
                </mxCell>
                <mxCell id="6YT7Y5T16hpjYgcye57W-95" value="" style="endArrow=none;dashed=1;html=1;rounded=0;" parent="1" edge="1">
                    <mxGeometry width="50" height="50" relative="1" as="geometry">
                        <mxPoint x="373" y="980" as="sourcePoint"/>
                        <mxPoint x="373.45" y="130" as="targetPoint"/>
                    </mxGeometry>
                </mxCell>
                <mxCell id="6YT7Y5T16hpjYgcye57W-96" value="" style="endArrow=classic;html=1;rounded=0;exitX=1.1;exitY=0.2;exitDx=0;exitDy=0;exitPerimeter=0;" parent="1" source="6YT7Y5T16hpjYgcye57W-29" target="6YT7Y5T16hpjYgcye57W-92" edge="1">
                    <mxGeometry width="50" height="50" relative="1" as="geometry">
                        <mxPoint x="550" y="320" as="sourcePoint"/>
                        <mxPoint x="600" y="270" as="targetPoint"/>
                    </mxGeometry>
                </mxCell>
                <mxCell id="6YT7Y5T16hpjYgcye57W-97" value="" style="endArrow=none;dashed=1;html=1;rounded=0;" parent="1" edge="1">
                    <mxGeometry width="50" height="50" relative="1" as="geometry">
                        <mxPoint x="104" y="1120" as="sourcePoint"/>
                        <mxPoint x="103.63999999999999" y="150" as="targetPoint"/>
                    </mxGeometry>
                </mxCell>
                <mxCell id="6YT7Y5T16hpjYgcye57W-92" value="" style="html=1;points=[];perimeter=orthogonalPerimeter;outlineConnect=0;targetShapes=umlLifeline;portConstraint=eastwest;newEdgeStyle={&quot;edgeStyle&quot;:&quot;elbowEdgeStyle&quot;,&quot;elbow&quot;:&quot;vertical&quot;,&quot;curved&quot;:0,&quot;rounded&quot;:0};fillColor=#f8cecc;strokeColor=#b85450;movable=1;resizable=1;rotatable=1;deletable=1;editable=1;locked=0;connectable=1;" parent="1" vertex="1">
                    <mxGeometry x="368.81" y="150" width="10" height="50" as="geometry"/>
                </mxCell>
                <mxCell id="6YT7Y5T16hpjYgcye57W-98" value="" style="endArrow=none;dashed=1;html=1;rounded=0;" parent="1" edge="1">
                    <mxGeometry width="50" height="50" relative="1" as="geometry">
                        <mxPoint x="667" y="1130" as="sourcePoint"/>
                        <mxPoint x="667.44" y="119" as="targetPoint"/>
                    </mxGeometry>
                </mxCell>
                <mxCell id="6YT7Y5T16hpjYgcye57W-99" value="" style="endArrow=classic;html=1;rounded=0;exitX=1.1;exitY=0.2;exitDx=0;exitDy=0;exitPerimeter=0;" parent="1" target="6YT7Y5T16hpjYgcye57W-100" edge="1">
                    <mxGeometry width="50" height="50" relative="1" as="geometry">
                        <mxPoint x="378.81" y="190" as="sourcePoint"/>
                        <mxPoint x="730" y="190" as="targetPoint"/>
                    </mxGeometry>
                </mxCell>
                <mxCell id="6YT7Y5T16hpjYgcye57W-101" value="Filtre kilometrage" style="text;html=1;strokeColor=none;fillColor=none;align=center;verticalAlign=middle;whiteSpace=wrap;rounded=0;" parent="1" vertex="1">
                    <mxGeometry x="490" y="160" width="110" height="30" as="geometry"/>
                </mxCell>
                <mxCell id="6YT7Y5T16hpjYgcye57W-102" value="" style="endArrow=classic;html=1;rounded=0;" parent="1" edge="1">
                    <mxGeometry width="50" height="50" relative="1" as="geometry">
                        <mxPoint x="673.44" y="200" as="sourcePoint"/>
                        <mxPoint x="675.5999999999999" y="230" as="targetPoint"/>
                        <Array as="points">
                            <mxPoint x="705.5999999999999" y="200"/>
                            <mxPoint x="705.5999999999999" y="230"/>
                        </Array>
                    </mxGeometry>
                </mxCell>
                <mxCell id="6YT7Y5T16hpjYgcye57W-103" value="Valide&lt;br&gt;Filtre kilometrage" style="text;html=1;strokeColor=none;fillColor=none;align=center;verticalAlign=middle;whiteSpace=wrap;rounded=0;" parent="1" vertex="1">
                    <mxGeometry x="705.6" y="200" width="94.4" height="30" as="geometry"/>
                </mxCell>
                <mxCell id="6YT7Y5T16hpjYgcye57W-104" value="alt" style="shape=umlFrame;whiteSpace=wrap;html=1;pointerEvents=0;width=40;height=20;" parent="1" vertex="1">
                    <mxGeometry x="60" y="270" width="692" height="190" as="geometry"/>
                </mxCell>
                <mxCell id="6YT7Y5T16hpjYgcye57W-105" value="" style="endArrow=classicThin;dashed=1;html=1;rounded=0;endFill=1;" parent="1" source="6YT7Y5T16hpjYgcye57W-106" edge="1">
                    <mxGeometry width="50" height="50" relative="1" as="geometry">
                        <mxPoint x="391.79999999999995" y="320" as="sourcePoint"/>
                        <mxPoint x="109" y="320" as="targetPoint"/>
                        <Array as="points">
                            <mxPoint x="263.9599999999998" y="320"/>
                        </Array>
                    </mxGeometry>
                </mxCell>
                <mxCell id="6YT7Y5T16hpjYgcye57W-106" value="" style="html=1;points=[];perimeter=orthogonalPerimeter;outlineConnect=0;targetShapes=umlLifeline;portConstraint=eastwest;newEdgeStyle={&quot;edgeStyle&quot;:&quot;elbowEdgeStyle&quot;,&quot;elbow&quot;:&quot;vertical&quot;,&quot;curved&quot;:0,&quot;rounded&quot;:0};fillColor=#f8cecc;strokeColor=#b85450;movable=1;resizable=1;rotatable=1;deletable=1;editable=1;locked=0;connectable=1;" parent="1" vertex="1">
                    <mxGeometry x="368.81" y="294" width="10" height="50" as="geometry"/>
                </mxCell>
                <mxCell id="6YT7Y5T16hpjYgcye57W-107" value="Affiche voitures" style="text;html=1;strokeColor=none;fillColor=none;align=center;verticalAlign=middle;whiteSpace=wrap;rounded=0;" parent="1" vertex="1">
                    <mxGeometry x="177.25" y="294" width="110" height="30" as="geometry"/>
                </mxCell>
                <mxCell id="6YT7Y5T16hpjYgcye57W-108" value="" style="endArrow=none;dashed=1;html=1;rounded=0;exitX=0.002;exitY=0.462;exitDx=0;exitDy=0;exitPerimeter=0;entryX=0.997;entryY=0.45;entryDx=0;entryDy=0;entryPerimeter=0;" parent="1" edge="1">
                    <mxGeometry width="50" height="50" relative="1" as="geometry">
                        <mxPoint x="60.00400000000002" y="356.02" as="sourcePoint"/>
                        <mxPoint x="748.5440000000002" y="353.9799999999999" as="targetPoint"/>
                    </mxGeometry>
                </mxCell>
                <mxCell id="6YT7Y5T16hpjYgcye57W-110" value="" style="endArrow=classicThin;dashed=1;html=1;rounded=0;endFill=1;" parent="1" edge="1">
                    <mxGeometry width="50" height="50" relative="1" as="geometry">
                        <mxPoint x="653.5" y="308.79999999999995" as="sourcePoint"/>
                        <mxPoint x="383.5" y="309" as="targetPoint"/>
                        <Array as="points">
                            <mxPoint x="548.4599999999998" y="308.79999999999995"/>
                        </Array>
                    </mxGeometry>
                </mxCell>
                <mxCell id="6YT7Y5T16hpjYgcye57W-111" value="Voitures trouvé selon kilometrage" style="text;html=1;strokeColor=none;fillColor=none;align=center;verticalAlign=middle;whiteSpace=wrap;rounded=0;" parent="1" vertex="1">
                    <mxGeometry x="420" y="280" width="180" height="30" as="geometry"/>
                </mxCell>
                <mxCell id="6YT7Y5T16hpjYgcye57W-112" value="Voitures non trouvé" style="text;html=1;strokeColor=none;fillColor=none;align=center;verticalAlign=middle;whiteSpace=wrap;rounded=0;" parent="1" vertex="1">
                    <mxGeometry x="420" y="380" width="180" height="30" as="geometry"/>
                </mxCell>
                <mxCell id="6YT7Y5T16hpjYgcye57W-113" value="Affiche message erreur&amp;nbsp;&lt;br&gt;Aucune voiture trouvé" style="text;html=1;strokeColor=none;fillColor=none;align=center;verticalAlign=middle;whiteSpace=wrap;rounded=0;" parent="1" vertex="1">
                    <mxGeometry x="145" y="390" width="180" height="30" as="geometry"/>
                </mxCell>
                <mxCell id="6YT7Y5T16hpjYgcye57W-114" value="" style="endArrow=classicThin;dashed=1;html=1;rounded=0;endFill=1;fontColor=#FF6666;strokeColor=#FF6666;" parent="1" edge="1">
                    <mxGeometry width="50" height="50" relative="1" as="geometry">
                        <mxPoint x="376.4" y="420" as="sourcePoint"/>
                        <mxPoint x="109.00000000000003" y="419.8" as="targetPoint"/>
                        <Array as="points">
                            <mxPoint x="263.80000000000007" y="419.59999999999997"/>
                        </Array>
                    </mxGeometry>
                </mxCell>
                <mxCell id="6YT7Y5T16hpjYgcye57W-109" value="" style="html=1;points=[];perimeter=orthogonalPerimeter;outlineConnect=0;targetShapes=umlLifeline;portConstraint=eastwest;newEdgeStyle={&quot;edgeStyle&quot;:&quot;elbowEdgeStyle&quot;,&quot;elbow&quot;:&quot;vertical&quot;,&quot;curved&quot;:0,&quot;rounded&quot;:0};fillColor=#f8cecc;strokeColor=#b85450;movable=1;resizable=1;rotatable=1;deletable=1;editable=1;locked=0;connectable=1;" parent="1" vertex="1">
                    <mxGeometry x="368.81" y="390" width="10" height="40" as="geometry"/>
                </mxCell>
                <mxCell id="6YT7Y5T16hpjYgcye57W-115" value="" style="endArrow=classicThin;dashed=1;html=1;rounded=0;endFill=1;fontColor=#FF6666;strokeColor=#FF6666;" parent="1" edge="1">
                    <mxGeometry width="50" height="50" relative="1" as="geometry">
                        <mxPoint x="666.8000000000001" y="754.8" as="sourcePoint"/>
                        <mxPoint x="384" y="755" as="targetPoint"/>
                        <Array as="points">
                            <mxPoint x="538.8000000000001" y="754.8"/>
                        </Array>
                    </mxGeometry>
                </mxCell>
                <mxCell id="6YT7Y5T16hpjYgcye57W-116" value="alt" style="shape=umlFrame;whiteSpace=wrap;html=1;pointerEvents=0;width=40;height=20;" parent="1" vertex="1">
                    <mxGeometry x="60" y="590" width="692" height="210" as="geometry"/>
                </mxCell>
                <mxCell id="6YT7Y5T16hpjYgcye57W-117" value="" style="endArrow=classicThin;dashed=1;html=1;rounded=0;endFill=1;" parent="1" source="6YT7Y5T16hpjYgcye57W-118" edge="1">
                    <mxGeometry width="50" height="50" relative="1" as="geometry">
                        <mxPoint x="391.79999999999995" y="657" as="sourcePoint"/>
                        <mxPoint x="109" y="657" as="targetPoint"/>
                        <Array as="points">
                            <mxPoint x="263.9599999999998" y="657"/>
                        </Array>
                    </mxGeometry>
                </mxCell>
                <mxCell id="6YT7Y5T16hpjYgcye57W-118" value="" style="html=1;points=[];perimeter=orthogonalPerimeter;outlineConnect=0;targetShapes=umlLifeline;portConstraint=eastwest;newEdgeStyle={&quot;edgeStyle&quot;:&quot;elbowEdgeStyle&quot;,&quot;elbow&quot;:&quot;vertical&quot;,&quot;curved&quot;:0,&quot;rounded&quot;:0};fillColor=#f8cecc;strokeColor=#b85450;movable=1;resizable=1;rotatable=1;deletable=1;editable=1;locked=0;connectable=1;" parent="1" vertex="1">
                    <mxGeometry x="368.81" y="631" width="10" height="50" as="geometry"/>
                </mxCell>
                <mxCell id="6YT7Y5T16hpjYgcye57W-119" value="Affiche voitures" style="text;html=1;strokeColor=none;fillColor=none;align=center;verticalAlign=middle;whiteSpace=wrap;rounded=0;" parent="1" vertex="1">
                    <mxGeometry x="180" y="631" width="110" height="30" as="geometry"/>
                </mxCell>
                <mxCell id="6YT7Y5T16hpjYgcye57W-120" value="" style="endArrow=none;dashed=1;html=1;rounded=0;exitX=0.002;exitY=0.462;exitDx=0;exitDy=0;exitPerimeter=0;entryX=0.997;entryY=0.45;entryDx=0;entryDy=0;entryPerimeter=0;" parent="1" edge="1">
                    <mxGeometry width="50" height="50" relative="1" as="geometry">
                        <mxPoint x="60.00400000000002" y="702.04" as="sourcePoint"/>
                        <mxPoint x="748.5440000000002" y="699.9999999999999" as="targetPoint"/>
                    </mxGeometry>
                </mxCell>
                <mxCell id="6YT7Y5T16hpjYgcye57W-121" value="" style="endArrow=classicThin;dashed=1;html=1;rounded=0;endFill=1;" parent="1" edge="1">
                    <mxGeometry width="50" height="50" relative="1" as="geometry">
                        <mxPoint x="653.5" y="645.8" as="sourcePoint"/>
                        <mxPoint x="383.5" y="646" as="targetPoint"/>
                        <Array as="points">
                            <mxPoint x="548.4599999999998" y="645.8"/>
                        </Array>
                    </mxGeometry>
                </mxCell>
                <mxCell id="6YT7Y5T16hpjYgcye57W-122" value="Voitures trouvé selon prix" style="text;html=1;strokeColor=none;fillColor=none;align=center;verticalAlign=middle;whiteSpace=wrap;rounded=0;" parent="1" vertex="1">
                    <mxGeometry x="420" y="617" width="180" height="30" as="geometry"/>
                </mxCell>
                <mxCell id="6YT7Y5T16hpjYgcye57W-123" value="Voitures non trouvé" style="text;html=1;strokeColor=none;fillColor=none;align=center;verticalAlign=middle;whiteSpace=wrap;rounded=0;" parent="1" vertex="1">
                    <mxGeometry x="420.4" y="730" width="180" height="30" as="geometry"/>
                </mxCell>
                <mxCell id="6YT7Y5T16hpjYgcye57W-124" value="Affiche message erreur&amp;nbsp;&lt;br&gt;Aucune voiture trouvé" style="text;html=1;strokeColor=none;fillColor=none;align=center;verticalAlign=middle;whiteSpace=wrap;rounded=0;" parent="1" vertex="1">
                    <mxGeometry x="110" y="740" width="260" height="30" as="geometry"/>
                </mxCell>
                <mxCell id="6YT7Y5T16hpjYgcye57W-125" value="" style="endArrow=classicThin;dashed=1;html=1;rounded=0;endFill=1;fontColor=#FF6666;strokeColor=#FF6666;" parent="1" edge="1">
                    <mxGeometry width="50" height="50" relative="1" as="geometry">
                        <mxPoint x="376.79999999999995" y="770" as="sourcePoint"/>
                        <mxPoint x="109.40000000000003" y="769.8" as="targetPoint"/>
                        <Array as="points">
                            <mxPoint x="264.20000000000005" y="769.5999999999999"/>
                        </Array>
                    </mxGeometry>
                </mxCell>
                <mxCell id="6YT7Y5T16hpjYgcye57W-126" value="" style="html=1;points=[];perimeter=orthogonalPerimeter;outlineConnect=0;targetShapes=umlLifeline;portConstraint=eastwest;newEdgeStyle={&quot;edgeStyle&quot;:&quot;elbowEdgeStyle&quot;,&quot;elbow&quot;:&quot;vertical&quot;,&quot;curved&quot;:0,&quot;rounded&quot;:0};fillColor=#f8cecc;strokeColor=#b85450;movable=1;resizable=1;rotatable=1;deletable=1;editable=1;locked=0;connectable=1;" parent="1" vertex="1">
                    <mxGeometry x="369.21" y="740" width="10" height="40" as="geometry"/>
                </mxCell>
                <mxCell id="6YT7Y5T16hpjYgcye57W-127" value="" style="html=1;points=[];perimeter=orthogonalPerimeter;outlineConnect=0;targetShapes=umlLifeline;portConstraint=eastwest;newEdgeStyle={&quot;edgeStyle&quot;:&quot;elbowEdgeStyle&quot;,&quot;elbow&quot;:&quot;vertical&quot;,&quot;curved&quot;:0,&quot;rounded&quot;:0};fillColor=#f8cecc;strokeColor=#b85450;movable=1;resizable=1;rotatable=1;deletable=1;editable=1;locked=0;connectable=1;" parent="1" vertex="1">
                    <mxGeometry x="368.81" y="520" width="10" height="40" as="geometry"/>
                </mxCell>
                <mxCell id="6YT7Y5T16hpjYgcye57W-129" value="" style="endArrow=classic;html=1;rounded=0;exitX=1.1;exitY=0.2;exitDx=0;exitDy=0;exitPerimeter=0;" parent="1" edge="1">
                    <mxGeometry width="50" height="50" relative="1" as="geometry">
                        <mxPoint x="378.81" y="535" as="sourcePoint"/>
                        <mxPoint x="663" y="535" as="targetPoint"/>
                    </mxGeometry>
                </mxCell>
                <mxCell id="6YT7Y5T16hpjYgcye57W-130" value="Filtre Prix" style="text;html=1;strokeColor=none;fillColor=none;align=center;verticalAlign=middle;whiteSpace=wrap;rounded=0;" parent="1" vertex="1">
                    <mxGeometry x="490" y="500" width="110" height="30" as="geometry"/>
                </mxCell>
                <mxCell id="6YT7Y5T16hpjYgcye57W-131" value="" style="endArrow=classic;html=1;rounded=0;" parent="1" edge="1">
                    <mxGeometry width="50" height="50" relative="1" as="geometry">
                        <mxPoint x="673.44" y="545" as="sourcePoint"/>
                        <mxPoint x="675.5999999999999" y="575" as="targetPoint"/>
                        <Array as="points">
                            <mxPoint x="705.5999999999999" y="545"/>
                            <mxPoint x="705.5999999999999" y="575"/>
                        </Array>
                    </mxGeometry>
                </mxCell>
                <mxCell id="6YT7Y5T16hpjYgcye57W-132" value="Valide&lt;br&gt;Filtre Prix" style="text;html=1;strokeColor=none;fillColor=none;align=center;verticalAlign=middle;whiteSpace=wrap;rounded=0;" parent="1" vertex="1">
                    <mxGeometry x="720" y="545" width="64.4" height="30" as="geometry"/>
                </mxCell>
                <mxCell id="6YT7Y5T16hpjYgcye57W-133" value="" style="html=1;points=[];perimeter=orthogonalPerimeter;outlineConnect=0;targetShapes=umlLifeline;portConstraint=eastwest;newEdgeStyle={&quot;edgeStyle&quot;:&quot;elbowEdgeStyle&quot;,&quot;elbow&quot;:&quot;vertical&quot;,&quot;curved&quot;:0,&quot;rounded&quot;:0};fillColor=#dae8fc;strokeColor=#6c8ebf;movable=1;resizable=1;rotatable=1;deletable=1;editable=1;locked=0;connectable=1;" parent="1" vertex="1">
                    <mxGeometry x="662.8" y="520" width="10" height="240" as="geometry"/>
                </mxCell>
                <mxCell id="6YT7Y5T16hpjYgcye57W-29" value="" style="html=1;points=[];perimeter=orthogonalPerimeter;outlineConnect=0;targetShapes=umlLifeline;portConstraint=eastwest;newEdgeStyle={&quot;edgeStyle&quot;:&quot;elbowEdgeStyle&quot;,&quot;elbow&quot;:&quot;vertical&quot;,&quot;curved&quot;:0,&quot;rounded&quot;:0};fillColor=#d5e8d4;strokeColor=#82b366;movable=1;resizable=1;rotatable=1;deletable=1;editable=1;locked=0;connectable=1;" parent="1" vertex="1">
                    <mxGeometry x="99" y="170" width="10" height="50" as="geometry"/>
                </mxCell>
                <mxCell id="6YT7Y5T16hpjYgcye57W-134" value="" style="html=1;points=[];perimeter=orthogonalPerimeter;outlineConnect=0;targetShapes=umlLifeline;portConstraint=eastwest;newEdgeStyle={&quot;edgeStyle&quot;:&quot;elbowEdgeStyle&quot;,&quot;elbow&quot;:&quot;vertical&quot;,&quot;curved&quot;:0,&quot;rounded&quot;:0};fillColor=#d5e8d4;strokeColor=#82b366;movable=1;resizable=1;rotatable=1;deletable=1;editable=1;locked=0;connectable=1;" parent="1" vertex="1">
                    <mxGeometry x="99" y="300" width="10" height="50" as="geometry"/>
                </mxCell>
                <mxCell id="6YT7Y5T16hpjYgcye57W-137" value="" style="html=1;points=[];perimeter=orthogonalPerimeter;outlineConnect=0;targetShapes=umlLifeline;portConstraint=eastwest;newEdgeStyle={&quot;edgeStyle&quot;:&quot;elbowEdgeStyle&quot;,&quot;elbow&quot;:&quot;vertical&quot;,&quot;curved&quot;:0,&quot;rounded&quot;:0};fillColor=#d5e8d4;strokeColor=#82b366;movable=1;resizable=1;rotatable=1;deletable=1;editable=1;locked=0;connectable=1;" parent="1" vertex="1">
                    <mxGeometry x="99" y="390" width="10" height="50" as="geometry"/>
                </mxCell>
                <mxCell id="6YT7Y5T16hpjYgcye57W-138" value="" style="html=1;points=[];perimeter=orthogonalPerimeter;outlineConnect=0;targetShapes=umlLifeline;portConstraint=eastwest;newEdgeStyle={&quot;edgeStyle&quot;:&quot;elbowEdgeStyle&quot;,&quot;elbow&quot;:&quot;vertical&quot;,&quot;curved&quot;:0,&quot;rounded&quot;:0};fillColor=#d5e8d4;strokeColor=#82b366;movable=1;resizable=1;rotatable=1;deletable=1;editable=1;locked=0;connectable=1;" parent="1" vertex="1">
                    <mxGeometry x="99" y="632" width="10" height="50" as="geometry"/>
                </mxCell>
                <mxCell id="6YT7Y5T16hpjYgcye57W-139" value="" style="html=1;points=[];perimeter=orthogonalPerimeter;outlineConnect=0;targetShapes=umlLifeline;portConstraint=eastwest;newEdgeStyle={&quot;edgeStyle&quot;:&quot;elbowEdgeStyle&quot;,&quot;elbow&quot;:&quot;vertical&quot;,&quot;curved&quot;:0,&quot;rounded&quot;:0};fillColor=#d5e8d4;strokeColor=#82b366;movable=1;resizable=1;rotatable=1;deletable=1;editable=1;locked=0;connectable=1;" parent="1" vertex="1">
                    <mxGeometry x="99.4" y="741" width="10" height="50" as="geometry"/>
                </mxCell>
                <mxCell id="6YT7Y5T16hpjYgcye57W-141" value="" style="endArrow=classicThin;dashed=1;html=1;rounded=0;endFill=1;fontColor=#FF6666;strokeColor=#FF6666;" parent="1" edge="1">
                    <mxGeometry width="50" height="50" relative="1" as="geometry">
                        <mxPoint x="666.4000000000001" y="1061.8" as="sourcePoint"/>
                        <mxPoint x="383.6" y="1062" as="targetPoint"/>
                        <Array as="points">
                            <mxPoint x="538.4000000000001" y="1061.8"/>
                        </Array>
                    </mxGeometry>
                </mxCell>
                <mxCell id="6YT7Y5T16hpjYgcye57W-142" value="alt" style="shape=umlFrame;whiteSpace=wrap;html=1;pointerEvents=0;width=40;height=20;" parent="1" vertex="1">
                    <mxGeometry x="60" y="890" width="692" height="230" as="geometry"/>
                </mxCell>
                <mxCell id="6YT7Y5T16hpjYgcye57W-143" value="" style="endArrow=classicThin;dashed=1;html=1;rounded=0;endFill=1;" parent="1" source="6YT7Y5T16hpjYgcye57W-144" edge="1">
                    <mxGeometry width="50" height="50" relative="1" as="geometry">
                        <mxPoint x="391.79999999999995" y="959" as="sourcePoint"/>
                        <mxPoint x="109" y="959" as="targetPoint"/>
                        <Array as="points">
                            <mxPoint x="263.9599999999998" y="959"/>
                        </Array>
                    </mxGeometry>
                </mxCell>
                <mxCell id="6YT7Y5T16hpjYgcye57W-145" value="Affiche voitures" style="text;html=1;strokeColor=none;fillColor=none;align=center;verticalAlign=middle;whiteSpace=wrap;rounded=0;" parent="1" vertex="1">
                    <mxGeometry x="180" y="933" width="110" height="30" as="geometry"/>
                </mxCell>
                <mxCell id="6YT7Y5T16hpjYgcye57W-146" value="" style="endArrow=none;dashed=1;html=1;rounded=0;exitX=0.002;exitY=0.462;exitDx=0;exitDy=0;exitPerimeter=0;entryX=0.997;entryY=0.45;entryDx=0;entryDy=0;entryPerimeter=0;" parent="1" edge="1">
                    <mxGeometry width="50" height="50" relative="1" as="geometry">
                        <mxPoint x="59.00400000000002" y="992.04" as="sourcePoint"/>
                        <mxPoint x="747.5440000000002" y="989.9999999999999" as="targetPoint"/>
                    </mxGeometry>
                </mxCell>
                <mxCell id="6YT7Y5T16hpjYgcye57W-147" value="" style="endArrow=classicThin;dashed=1;html=1;rounded=0;endFill=1;" parent="1" edge="1">
                    <mxGeometry width="50" height="50" relative="1" as="geometry">
                        <mxPoint x="653.5" y="947.8" as="sourcePoint"/>
                        <mxPoint x="383.5" y="948" as="targetPoint"/>
                        <Array as="points">
                            <mxPoint x="548.4599999999998" y="947.8"/>
                        </Array>
                    </mxGeometry>
                </mxCell>
                <mxCell id="6YT7Y5T16hpjYgcye57W-148" value="Voitures trouvé selon année" style="text;html=1;strokeColor=none;fillColor=none;align=center;verticalAlign=middle;whiteSpace=wrap;rounded=0;" parent="1" vertex="1">
                    <mxGeometry x="420" y="919" width="180" height="30" as="geometry"/>
                </mxCell>
                <mxCell id="6YT7Y5T16hpjYgcye57W-149" value="Voitures non trouvé" style="text;html=1;strokeColor=none;fillColor=none;align=center;verticalAlign=middle;whiteSpace=wrap;rounded=0;" parent="1" vertex="1">
                    <mxGeometry x="420" y="1037" width="180" height="30" as="geometry"/>
                </mxCell>
                <mxCell id="6YT7Y5T16hpjYgcye57W-150" value="Affiche message erreur&amp;nbsp;&lt;br&gt;Aucune voiture trouvé" style="text;html=1;strokeColor=none;fillColor=none;align=center;verticalAlign=middle;whiteSpace=wrap;rounded=0;" parent="1" vertex="1">
                    <mxGeometry x="148" y="1047" width="180" height="30" as="geometry"/>
                </mxCell>
                <mxCell id="6YT7Y5T16hpjYgcye57W-151" value="" style="endArrow=classicThin;dashed=1;html=1;rounded=0;endFill=1;fontColor=#FF6666;strokeColor=#FF6666;" parent="1" edge="1">
                    <mxGeometry width="50" height="50" relative="1" as="geometry">
                        <mxPoint x="376.4" y="1077" as="sourcePoint"/>
                        <mxPoint x="109.00000000000003" y="1076.8" as="targetPoint"/>
                        <Array as="points">
                            <mxPoint x="263.80000000000007" y="1076.6"/>
                        </Array>
                    </mxGeometry>
                </mxCell>
                <mxCell id="6YT7Y5T16hpjYgcye57W-153" value="" style="endArrow=none;dashed=1;html=1;rounded=0;" parent="1" target="6YT7Y5T16hpjYgcye57W-154" edge="1">
                    <mxGeometry width="50" height="50" relative="1" as="geometry">
                        <mxPoint x="373" y="1150" as="sourcePoint"/>
                        <mxPoint x="373.45" y="500" as="targetPoint"/>
                    </mxGeometry>
                </mxCell>
                <mxCell id="6YT7Y5T16hpjYgcye57W-154" value="" style="html=1;points=[];perimeter=orthogonalPerimeter;outlineConnect=0;targetShapes=umlLifeline;portConstraint=eastwest;newEdgeStyle={&quot;edgeStyle&quot;:&quot;elbowEdgeStyle&quot;,&quot;elbow&quot;:&quot;vertical&quot;,&quot;curved&quot;:0,&quot;rounded&quot;:0};fillColor=#f8cecc;strokeColor=#b85450;movable=1;resizable=1;rotatable=1;deletable=1;editable=1;locked=0;connectable=1;" parent="1" vertex="1">
                    <mxGeometry x="368.81" y="830" width="10" height="40" as="geometry"/>
                </mxCell>
                <mxCell id="6YT7Y5T16hpjYgcye57W-155" value="" style="endArrow=classic;html=1;rounded=0;exitX=1.1;exitY=0.2;exitDx=0;exitDy=0;exitPerimeter=0;" parent="1" edge="1">
                    <mxGeometry width="50" height="50" relative="1" as="geometry">
                        <mxPoint x="378.81" y="845" as="sourcePoint"/>
                        <mxPoint x="663" y="845" as="targetPoint"/>
                    </mxGeometry>
                </mxCell>
                <mxCell id="6YT7Y5T16hpjYgcye57W-156" value="" style="endArrow=classic;html=1;rounded=0;" parent="1" edge="1">
                    <mxGeometry width="50" height="50" relative="1" as="geometry">
                        <mxPoint x="673.44" y="848" as="sourcePoint"/>
                        <mxPoint x="675.5999999999999" y="878" as="targetPoint"/>
                        <Array as="points">
                            <mxPoint x="705.5999999999999" y="848"/>
                            <mxPoint x="705.5999999999999" y="878"/>
                        </Array>
                    </mxGeometry>
                </mxCell>
                <mxCell id="6YT7Y5T16hpjYgcye57W-157" value="Valide&lt;br&gt;Filtre Année" style="text;html=1;strokeColor=none;fillColor=none;align=center;verticalAlign=middle;whiteSpace=wrap;rounded=0;" parent="1" vertex="1">
                    <mxGeometry x="720" y="850" width="70" height="30" as="geometry"/>
                </mxCell>
                <mxCell id="6YT7Y5T16hpjYgcye57W-158" value="" style="html=1;points=[];perimeter=orthogonalPerimeter;outlineConnect=0;targetShapes=umlLifeline;portConstraint=eastwest;newEdgeStyle={&quot;edgeStyle&quot;:&quot;elbowEdgeStyle&quot;,&quot;elbow&quot;:&quot;vertical&quot;,&quot;curved&quot;:0,&quot;rounded&quot;:0};fillColor=#dae8fc;strokeColor=#6c8ebf;movable=1;resizable=1;rotatable=1;deletable=1;editable=1;locked=0;connectable=1;" parent="1" vertex="1">
                    <mxGeometry x="662.8" y="830" width="10" height="250" as="geometry"/>
                </mxCell>
                <mxCell id="6YT7Y5T16hpjYgcye57W-159" value="" style="html=1;points=[];perimeter=orthogonalPerimeter;outlineConnect=0;targetShapes=umlLifeline;portConstraint=eastwest;newEdgeStyle={&quot;edgeStyle&quot;:&quot;elbowEdgeStyle&quot;,&quot;elbow&quot;:&quot;vertical&quot;,&quot;curved&quot;:0,&quot;rounded&quot;:0};fillColor=#d5e8d4;strokeColor=#82b366;movable=1;resizable=1;rotatable=1;deletable=1;editable=1;locked=0;connectable=1;" parent="1" vertex="1">
                    <mxGeometry x="99" y="934" width="10" height="50" as="geometry"/>
                </mxCell>
                <mxCell id="6YT7Y5T16hpjYgcye57W-160" value="" style="html=1;points=[];perimeter=orthogonalPerimeter;outlineConnect=0;targetShapes=umlLifeline;portConstraint=eastwest;newEdgeStyle={&quot;edgeStyle&quot;:&quot;elbowEdgeStyle&quot;,&quot;elbow&quot;:&quot;vertical&quot;,&quot;curved&quot;:0,&quot;rounded&quot;:0};fillColor=#d5e8d4;strokeColor=#82b366;movable=1;resizable=1;rotatable=1;deletable=1;editable=1;locked=0;connectable=1;" parent="1" vertex="1">
                    <mxGeometry x="99" y="1042" width="10" height="50" as="geometry"/>
                </mxCell>
                <mxCell id="6YT7Y5T16hpjYgcye57W-161" value="Filtre Année" style="text;html=1;strokeColor=none;fillColor=none;align=center;verticalAlign=middle;whiteSpace=wrap;rounded=0;" parent="1" vertex="1">
                    <mxGeometry x="463" y="820" width="110" height="30" as="geometry"/>
                </mxCell>
                <mxCell id="6YT7Y5T16hpjYgcye57W-100" value="" style="html=1;points=[];perimeter=orthogonalPerimeter;outlineConnect=0;targetShapes=umlLifeline;portConstraint=eastwest;newEdgeStyle={&quot;edgeStyle&quot;:&quot;elbowEdgeStyle&quot;,&quot;elbow&quot;:&quot;vertical&quot;,&quot;curved&quot;:0,&quot;rounded&quot;:0};fillColor=#dae8fc;strokeColor=#6c8ebf;movable=1;resizable=1;rotatable=1;deletable=1;editable=1;locked=0;connectable=1;" parent="1" vertex="1">
                    <mxGeometry x="662.8" y="160" width="10" height="250" as="geometry"/>
                </mxCell>
                <mxCell id="6YT7Y5T16hpjYgcye57W-337" value="&lt;font color=&quot;#7d7d7d&quot;&gt;Les filtres kilometrage sont bien reussi&lt;/font&gt;" style="text;html=1;strokeColor=none;fillColor=none;align=center;verticalAlign=middle;whiteSpace=wrap;rounded=0;" parent="1" vertex="1">
                    <mxGeometry x="93" y="270" width="239" height="30" as="geometry"/>
                </mxCell>
                <mxCell id="6YT7Y5T16hpjYgcye57W-144" value="" style="html=1;points=[];perimeter=orthogonalPerimeter;outlineConnect=0;targetShapes=umlLifeline;portConstraint=eastwest;newEdgeStyle={&quot;edgeStyle&quot;:&quot;elbowEdgeStyle&quot;,&quot;elbow&quot;:&quot;vertical&quot;,&quot;curved&quot;:0,&quot;rounded&quot;:0};fillColor=#f8cecc;strokeColor=#b85450;movable=1;resizable=1;rotatable=1;deletable=1;editable=1;locked=0;connectable=1;" parent="1" vertex="1">
                    <mxGeometry x="368.81" y="933" width="10" height="50" as="geometry"/>
                </mxCell>
                <mxCell id="6YT7Y5T16hpjYgcye57W-152" value="" style="html=1;points=[];perimeter=orthogonalPerimeter;outlineConnect=0;targetShapes=umlLifeline;portConstraint=eastwest;newEdgeStyle={&quot;edgeStyle&quot;:&quot;elbowEdgeStyle&quot;,&quot;elbow&quot;:&quot;vertical&quot;,&quot;curved&quot;:0,&quot;rounded&quot;:0};fillColor=#f8cecc;strokeColor=#b85450;movable=1;resizable=1;rotatable=1;deletable=1;editable=1;locked=0;connectable=1;" parent="1" vertex="1">
                    <mxGeometry x="368.81" y="1047" width="10" height="40" as="geometry"/>
                </mxCell>
                <mxCell id="6YT7Y5T16hpjYgcye57W-339" value="&lt;font color=&quot;#7d7d7d&quot;&gt;Les filtres kilometrage ne sont pas bien reussi&lt;/font&gt;" style="text;html=1;strokeColor=none;fillColor=none;align=center;verticalAlign=middle;whiteSpace=wrap;rounded=0;" parent="1" vertex="1">
                    <mxGeometry x="102.75" y="360" width="257" height="30" as="geometry"/>
                </mxCell>
                <mxCell id="6YT7Y5T16hpjYgcye57W-340" value="&lt;font color=&quot;#7d7d7d&quot;&gt;Les filtres prix sont bien reussi&lt;/font&gt;" style="text;html=1;strokeColor=none;fillColor=none;align=center;verticalAlign=middle;whiteSpace=wrap;rounded=0;" parent="1" vertex="1">
                    <mxGeometry x="93" y="601" width="239" height="30" as="geometry"/>
                </mxCell>
                <mxCell id="6YT7Y5T16hpjYgcye57W-341" value="&lt;font color=&quot;#7d7d7d&quot;&gt;Les filtres prix ne sont pas bien reussi&lt;/font&gt;" style="text;html=1;strokeColor=none;fillColor=none;align=center;verticalAlign=middle;whiteSpace=wrap;rounded=0;" parent="1" vertex="1">
                    <mxGeometry x="93" y="700" width="257" height="30" as="geometry"/>
                </mxCell>
                <mxCell id="6YT7Y5T16hpjYgcye57W-342" value="&lt;font color=&quot;#7d7d7d&quot;&gt;Les filtres année sont bien reussi&lt;/font&gt;" style="text;html=1;strokeColor=none;fillColor=none;align=center;verticalAlign=middle;whiteSpace=wrap;rounded=0;" parent="1" vertex="1">
                    <mxGeometry x="71" y="894.5" width="239" height="30" as="geometry"/>
                </mxCell>
                <mxCell id="6YT7Y5T16hpjYgcye57W-343" value="&lt;font color=&quot;#7d7d7d&quot;&gt;Les filtres année ne sont pas bien reussi&lt;/font&gt;" style="text;html=1;strokeColor=none;fillColor=none;align=center;verticalAlign=middle;whiteSpace=wrap;rounded=0;" parent="1" vertex="1">
                    <mxGeometry x="83.01" y="1007" width="257" height="30" as="geometry"/>
                </mxCell>
            </root>
        </mxGraphModel>
    </diagram>
    <diagram id="bj9RakxovIg0wPSclFXY" name="Page-2">
        <mxGraphModel dx="973" dy="-562" grid="1" gridSize="10" guides="1" tooltips="1" connect="1" arrows="1" fold="1" page="1" pageScale="1" pageWidth="827" pageHeight="1169" math="0" shadow="0">
            <root>
                <mxCell id="0"/>
                <mxCell id="1" parent="0"/>
                <mxCell id="UQ2MulQ3P8D4iQqI1dng-1" value="&lt;font color=&quot;#ababab&quot;&gt;Diagramme de séquence- formulaire a propos d'une voiture&amp;nbsp; -&amp;nbsp; Marcos Meneghetti - Graduate Fullstack&lt;/font&gt;" style="text;html=1;strokeColor=none;fillColor=none;align=center;verticalAlign=middle;whiteSpace=wrap;rounded=0;" parent="1" vertex="1">
                    <mxGeometry x="196" y="1190" width="596" height="30" as="geometry"/>
                </mxCell>
                <mxCell id="UQ2MulQ3P8D4iQqI1dng-2" value="Visiteur&lt;br&gt;" style="shape=umlActor;verticalLabelPosition=bottom;verticalAlign=top;html=1;" parent="1" vertex="1">
                    <mxGeometry x="93" y="1250" width="30" height="60" as="geometry"/>
                </mxCell>
                <mxCell id="UQ2MulQ3P8D4iQqI1dng-3" value="page voiture contact" style="text;html=1;strokeColor=#6c8ebf;fillColor=#dae8fc;align=center;verticalAlign=middle;whiteSpace=wrap;rounded=0;" parent="1" vertex="1">
                    <mxGeometry x="340.01" y="1270" width="75.6" height="30" as="geometry"/>
                </mxCell>
                <mxCell id="UQ2MulQ3P8D4iQqI1dng-4" value="Entre le nom" style="text;html=1;strokeColor=none;fillColor=none;align=center;verticalAlign=middle;whiteSpace=wrap;rounded=0;" parent="1" vertex="1">
                    <mxGeometry x="187" y="1343" width="88.5" height="10" as="geometry"/>
                </mxCell>
                <mxCell id="UQ2MulQ3P8D4iQqI1dng-5" value="email" style="text;html=1;strokeColor=#6c8ebf;fillColor=#dae8fc;align=center;verticalAlign=middle;whiteSpace=wrap;rounded=0;" parent="1" vertex="1">
                    <mxGeometry x="634" y="1270" width="75.6" height="30" as="geometry"/>
                </mxCell>
                <mxCell id="UQ2MulQ3P8D4iQqI1dng-6" value="" style="endArrow=none;dashed=1;html=1;rounded=0;" parent="1" source="UQ2MulQ3P8D4iQqI1dng-36" edge="1">
                    <mxGeometry width="50" height="50" relative="1" as="geometry">
                        <mxPoint x="377" y="2160" as="sourcePoint"/>
                        <mxPoint x="377.45" y="1310" as="targetPoint"/>
                    </mxGeometry>
                </mxCell>
                <mxCell id="UQ2MulQ3P8D4iQqI1dng-7" value="" style="endArrow=classic;html=1;rounded=0;exitX=1.1;exitY=0.2;exitDx=0;exitDy=0;exitPerimeter=0;" parent="1" source="UQ2MulQ3P8D4iQqI1dng-15" target="UQ2MulQ3P8D4iQqI1dng-9" edge="1">
                    <mxGeometry width="50" height="50" relative="1" as="geometry">
                        <mxPoint x="554" y="1500" as="sourcePoint"/>
                        <mxPoint x="604" y="1450" as="targetPoint"/>
                    </mxGeometry>
                </mxCell>
                <mxCell id="UQ2MulQ3P8D4iQqI1dng-8" value="" style="endArrow=none;dashed=1;html=1;rounded=0;" parent="1" source="UQ2MulQ3P8D4iQqI1dng-25" edge="1">
                    <mxGeometry width="50" height="50" relative="1" as="geometry">
                        <mxPoint x="108" y="2180" as="sourcePoint"/>
                        <mxPoint x="107.63999999999999" y="1330" as="targetPoint"/>
                    </mxGeometry>
                </mxCell>
                <mxCell id="UQ2MulQ3P8D4iQqI1dng-9" value="" style="html=1;points=[];perimeter=orthogonalPerimeter;outlineConnect=0;targetShapes=umlLifeline;portConstraint=eastwest;newEdgeStyle={&quot;edgeStyle&quot;:&quot;elbowEdgeStyle&quot;,&quot;elbow&quot;:&quot;vertical&quot;,&quot;curved&quot;:0,&quot;rounded&quot;:0};fillColor=#f8cecc;strokeColor=#b85450;movable=1;resizable=1;rotatable=1;deletable=1;editable=1;locked=0;connectable=1;" parent="1" vertex="1">
                    <mxGeometry x="372.81" y="1330" width="10" height="50" as="geometry"/>
                </mxCell>
                <mxCell id="UQ2MulQ3P8D4iQqI1dng-10" value="" style="endArrow=none;dashed=1;html=1;rounded=0;" parent="1" source="UQ2MulQ3P8D4iQqI1dng-48" edge="1">
                    <mxGeometry width="50" height="50" relative="1" as="geometry">
                        <mxPoint x="671" y="2180.8333333333335" as="sourcePoint"/>
                        <mxPoint x="671.44" y="1299" as="targetPoint"/>
                    </mxGeometry>
                </mxCell>
                <mxCell id="UQ2MulQ3P8D4iQqI1dng-11" value="" style="endArrow=classic;html=1;rounded=0;exitX=1.1;exitY=0.2;exitDx=0;exitDy=0;exitPerimeter=0;" parent="1" edge="1">
                    <mxGeometry width="50" height="50" relative="1" as="geometry">
                        <mxPoint x="382.81" y="1660" as="sourcePoint"/>
                        <mxPoint x="666.8" y="1660" as="targetPoint"/>
                    </mxGeometry>
                </mxCell>
                <mxCell id="UQ2MulQ3P8D4iQqI1dng-12" value="Envoye les informations du formulaire" style="text;html=1;strokeColor=none;fillColor=none;align=center;verticalAlign=middle;whiteSpace=wrap;rounded=0;" parent="1" vertex="1">
                    <mxGeometry x="408" y="1630" width="230" height="30" as="geometry"/>
                </mxCell>
                <mxCell id="UQ2MulQ3P8D4iQqI1dng-13" value="" style="endArrow=classic;html=1;rounded=0;" parent="1" edge="1">
                    <mxGeometry width="50" height="50" relative="1" as="geometry">
                        <mxPoint x="676.8000000000001" y="1678" as="sourcePoint"/>
                        <mxPoint x="678.9599999999999" y="1708" as="targetPoint"/>
                        <Array as="points">
                            <mxPoint x="708.9599999999999" y="1678"/>
                            <mxPoint x="708.9599999999999" y="1708"/>
                        </Array>
                    </mxGeometry>
                </mxCell>
                <mxCell id="UQ2MulQ3P8D4iQqI1dng-14" value="valider&lt;br&gt;formulaire" style="text;html=1;strokeColor=none;fillColor=none;align=center;verticalAlign=middle;whiteSpace=wrap;rounded=0;" parent="1" vertex="1">
                    <mxGeometry x="720" y="1678" width="58.4" height="30" as="geometry"/>
                </mxCell>
                <mxCell id="UQ2MulQ3P8D4iQqI1dng-15" value="" style="html=1;points=[];perimeter=orthogonalPerimeter;outlineConnect=0;targetShapes=umlLifeline;portConstraint=eastwest;newEdgeStyle={&quot;edgeStyle&quot;:&quot;elbowEdgeStyle&quot;,&quot;elbow&quot;:&quot;vertical&quot;,&quot;curved&quot;:0,&quot;rounded&quot;:0};fillColor=#d5e8d4;strokeColor=#82b366;movable=1;resizable=1;rotatable=1;deletable=1;editable=1;locked=0;connectable=1;" parent="1" vertex="1">
                    <mxGeometry x="103" y="1350" width="10" height="30" as="geometry"/>
                </mxCell>
                <mxCell id="UQ2MulQ3P8D4iQqI1dng-16" value="alt" style="shape=umlFrame;whiteSpace=wrap;html=1;pointerEvents=0;width=40;height=20;" parent="1" vertex="1">
                    <mxGeometry x="48" y="1720" width="692" height="270" as="geometry"/>
                </mxCell>
                <mxCell id="UQ2MulQ3P8D4iQqI1dng-17" value="" style="endArrow=classicThin;dashed=1;html=1;rounded=0;endFill=1;" parent="1" edge="1">
                    <mxGeometry width="50" height="50" relative="1" as="geometry">
                        <mxPoint x="670.2299999999999" y="1778.7" as="sourcePoint"/>
                        <mxPoint x="382.81" y="1778.57" as="targetPoint"/>
                        <Array as="points">
                            <mxPoint x="565.3799999999998" y="1778.7"/>
                        </Array>
                    </mxGeometry>
                </mxCell>
                <mxCell id="UQ2MulQ3P8D4iQqI1dng-18" value="" style="endArrow=none;dashed=1;html=1;rounded=0;exitX=0.002;exitY=0.462;exitDx=0;exitDy=0;exitPerimeter=0;entryX=0.997;entryY=0.45;entryDx=0;entryDy=0;entryPerimeter=0;" parent="1" edge="1">
                    <mxGeometry width="50" height="50" relative="1" as="geometry">
                        <mxPoint x="51.46400000000002" y="1822.04" as="sourcePoint"/>
                        <mxPoint x="740.0040000000004" y="1820" as="targetPoint"/>
                    </mxGeometry>
                </mxCell>
                <mxCell id="UQ2MulQ3P8D4iQqI1dng-19" value="" style="endArrow=classicThin;dashed=1;html=1;rounded=0;endFill=1;fontColor=#FF6666;strokeColor=#FF6666;" parent="1" edge="1">
                    <mxGeometry width="50" height="50" relative="1" as="geometry">
                        <mxPoint x="378" y="1910" as="sourcePoint"/>
                        <mxPoint x="114.40999999999997" y="1909.6299999999999" as="targetPoint"/>
                        <Array as="points">
                            <mxPoint x="269.21000000000015" y="1909.4299999999998"/>
                        </Array>
                    </mxGeometry>
                </mxCell>
                <mxCell id="UQ2MulQ3P8D4iQqI1dng-20" value="" style="endArrow=classicThin;dashed=1;html=1;rounded=0;endFill=1;" parent="1" edge="1">
                    <mxGeometry width="50" height="50" relative="1" as="geometry">
                        <mxPoint x="373.80999999999995" y="1785" as="sourcePoint"/>
                        <mxPoint x="114" y="1785" as="targetPoint"/>
                        <Array as="points">
                            <mxPoint x="268.9599999999998" y="1785"/>
                        </Array>
                    </mxGeometry>
                </mxCell>
                <mxCell id="UQ2MulQ3P8D4iQqI1dng-21" value="Affiche message Merci pour votre e-mail" style="text;html=1;strokeColor=none;fillColor=none;align=center;verticalAlign=middle;whiteSpace=wrap;rounded=0;" parent="1" vertex="1">
                    <mxGeometry x="121.5" y="1768.5" width="233" height="10" as="geometry"/>
                </mxCell>
                <mxCell id="UQ2MulQ3P8D4iQqI1dng-22" value="Entre prénom" style="text;html=1;strokeColor=none;fillColor=none;align=center;verticalAlign=middle;whiteSpace=wrap;rounded=0;" parent="1" vertex="1">
                    <mxGeometry x="187" y="1407" width="88.5" height="10" as="geometry"/>
                </mxCell>
                <mxCell id="UQ2MulQ3P8D4iQqI1dng-23" value="" style="endArrow=classic;html=1;rounded=0;exitX=1.1;exitY=0.2;exitDx=0;exitDy=0;exitPerimeter=0;" parent="1" target="UQ2MulQ3P8D4iQqI1dng-36" edge="1">
                    <mxGeometry width="50" height="50" relative="1" as="geometry">
                        <mxPoint x="113" y="1420" as="sourcePoint"/>
                        <mxPoint x="603" y="1510" as="targetPoint"/>
                    </mxGeometry>
                </mxCell>
                <mxCell id="UQ2MulQ3P8D4iQqI1dng-24" value="" style="endArrow=none;dashed=1;html=1;rounded=0;" parent="1" source="UQ2MulQ3P8D4iQqI1dng-56" target="UQ2MulQ3P8D4iQqI1dng-25" edge="1">
                    <mxGeometry width="50" height="50" relative="1" as="geometry">
                        <mxPoint x="108" y="2180" as="sourcePoint"/>
                        <mxPoint x="107.63999999999999" y="1330" as="targetPoint"/>
                    </mxGeometry>
                </mxCell>
                <mxCell id="UQ2MulQ3P8D4iQqI1dng-25" value="" style="html=1;points=[];perimeter=orthogonalPerimeter;outlineConnect=0;targetShapes=umlLifeline;portConstraint=eastwest;newEdgeStyle={&quot;edgeStyle&quot;:&quot;elbowEdgeStyle&quot;,&quot;elbow&quot;:&quot;vertical&quot;,&quot;curved&quot;:0,&quot;rounded&quot;:0};fillColor=#d5e8d4;strokeColor=#82b366;movable=1;resizable=1;rotatable=1;deletable=1;editable=1;locked=0;connectable=1;" parent="1" vertex="1">
                    <mxGeometry x="103" y="1400" width="10" height="30" as="geometry"/>
                </mxCell>
                <mxCell id="UQ2MulQ3P8D4iQqI1dng-26" value="Entre email" style="text;html=1;strokeColor=none;fillColor=none;align=center;verticalAlign=middle;whiteSpace=wrap;rounded=0;" parent="1" vertex="1">
                    <mxGeometry x="188" y="1463" width="88.5" height="10" as="geometry"/>
                </mxCell>
                <mxCell id="UQ2MulQ3P8D4iQqI1dng-27" value="" style="endArrow=classic;html=1;rounded=0;exitX=1.1;exitY=0.2;exitDx=0;exitDy=0;exitPerimeter=0;" parent="1" edge="1">
                    <mxGeometry width="50" height="50" relative="1" as="geometry">
                        <mxPoint x="114" y="1476" as="sourcePoint"/>
                        <mxPoint x="372.80999999999995" y="1476" as="targetPoint"/>
                    </mxGeometry>
                </mxCell>
                <mxCell id="UQ2MulQ3P8D4iQqI1dng-28" value="" style="html=1;points=[];perimeter=orthogonalPerimeter;outlineConnect=0;targetShapes=umlLifeline;portConstraint=eastwest;newEdgeStyle={&quot;edgeStyle&quot;:&quot;elbowEdgeStyle&quot;,&quot;elbow&quot;:&quot;vertical&quot;,&quot;curved&quot;:0,&quot;rounded&quot;:0};fillColor=#d5e8d4;strokeColor=#82b366;movable=1;resizable=1;rotatable=1;deletable=1;editable=1;locked=0;connectable=1;" parent="1" vertex="1">
                    <mxGeometry x="104" y="1456" width="10" height="30" as="geometry"/>
                </mxCell>
                <mxCell id="UQ2MulQ3P8D4iQqI1dng-29" value="Entre téléphone" style="text;html=1;strokeColor=none;fillColor=none;align=center;verticalAlign=middle;whiteSpace=wrap;rounded=0;" parent="1" vertex="1">
                    <mxGeometry x="188" y="1525" width="88.5" height="10" as="geometry"/>
                </mxCell>
                <mxCell id="UQ2MulQ3P8D4iQqI1dng-30" value="" style="endArrow=classic;html=1;rounded=0;exitX=1.1;exitY=0.2;exitDx=0;exitDy=0;exitPerimeter=0;" parent="1" edge="1">
                    <mxGeometry width="50" height="50" relative="1" as="geometry">
                        <mxPoint x="114" y="1538" as="sourcePoint"/>
                        <mxPoint x="372.80999999999995" y="1538" as="targetPoint"/>
                    </mxGeometry>
                </mxCell>
                <mxCell id="UQ2MulQ3P8D4iQqI1dng-31" value="" style="html=1;points=[];perimeter=orthogonalPerimeter;outlineConnect=0;targetShapes=umlLifeline;portConstraint=eastwest;newEdgeStyle={&quot;edgeStyle&quot;:&quot;elbowEdgeStyle&quot;,&quot;elbow&quot;:&quot;vertical&quot;,&quot;curved&quot;:0,&quot;rounded&quot;:0};fillColor=#d5e8d4;strokeColor=#82b366;movable=1;resizable=1;rotatable=1;deletable=1;editable=1;locked=0;connectable=1;" parent="1" vertex="1">
                    <mxGeometry x="104" y="1518" width="10" height="30" as="geometry"/>
                </mxCell>
                <mxCell id="UQ2MulQ3P8D4iQqI1dng-32" value="Entre sujet" style="text;html=1;strokeColor=none;fillColor=none;align=center;verticalAlign=middle;whiteSpace=wrap;rounded=0;" parent="1" vertex="1">
                    <mxGeometry x="187" y="1595" width="88.5" height="10" as="geometry"/>
                </mxCell>
                <mxCell id="UQ2MulQ3P8D4iQqI1dng-33" value="" style="endArrow=classic;html=1;rounded=0;exitX=1.1;exitY=0.2;exitDx=0;exitDy=0;exitPerimeter=0;" parent="1" edge="1">
                    <mxGeometry width="50" height="50" relative="1" as="geometry">
                        <mxPoint x="113" y="1608" as="sourcePoint"/>
                        <mxPoint x="371.80999999999995" y="1608" as="targetPoint"/>
                    </mxGeometry>
                </mxCell>
                <mxCell id="UQ2MulQ3P8D4iQqI1dng-34" value="" style="html=1;points=[];perimeter=orthogonalPerimeter;outlineConnect=0;targetShapes=umlLifeline;portConstraint=eastwest;newEdgeStyle={&quot;edgeStyle&quot;:&quot;elbowEdgeStyle&quot;,&quot;elbow&quot;:&quot;vertical&quot;,&quot;curved&quot;:0,&quot;rounded&quot;:0};fillColor=#d5e8d4;strokeColor=#82b366;movable=1;resizable=1;rotatable=1;deletable=1;editable=1;locked=0;connectable=1;" parent="1" vertex="1">
                    <mxGeometry x="103" y="1588" width="10" height="30" as="geometry"/>
                </mxCell>
                <mxCell id="UQ2MulQ3P8D4iQqI1dng-35" value="" style="endArrow=none;dashed=1;html=1;rounded=0;" parent="1" source="UQ2MulQ3P8D4iQqI1dng-38" target="UQ2MulQ3P8D4iQqI1dng-36" edge="1">
                    <mxGeometry width="50" height="50" relative="1" as="geometry">
                        <mxPoint x="377" y="2160" as="sourcePoint"/>
                        <mxPoint x="377.45" y="1310" as="targetPoint"/>
                    </mxGeometry>
                </mxCell>
                <mxCell id="UQ2MulQ3P8D4iQqI1dng-36" value="" style="html=1;points=[];perimeter=orthogonalPerimeter;outlineConnect=0;targetShapes=umlLifeline;portConstraint=eastwest;newEdgeStyle={&quot;edgeStyle&quot;:&quot;elbowEdgeStyle&quot;,&quot;elbow&quot;:&quot;vertical&quot;,&quot;curved&quot;:0,&quot;rounded&quot;:0};fillColor=#f8cecc;strokeColor=#b85450;movable=1;resizable=1;rotatable=1;deletable=1;editable=1;locked=0;connectable=1;" parent="1" vertex="1">
                    <mxGeometry x="371.81" y="1400" width="10" height="40" as="geometry"/>
                </mxCell>
                <mxCell id="UQ2MulQ3P8D4iQqI1dng-37" value="" style="endArrow=none;dashed=1;html=1;rounded=0;" parent="1" source="UQ2MulQ3P8D4iQqI1dng-40" target="UQ2MulQ3P8D4iQqI1dng-38" edge="1">
                    <mxGeometry width="50" height="50" relative="1" as="geometry">
                        <mxPoint x="377" y="2146" as="sourcePoint"/>
                        <mxPoint x="377" y="1426" as="targetPoint"/>
                    </mxGeometry>
                </mxCell>
                <mxCell id="UQ2MulQ3P8D4iQqI1dng-38" value="" style="html=1;points=[];perimeter=orthogonalPerimeter;outlineConnect=0;targetShapes=umlLifeline;portConstraint=eastwest;newEdgeStyle={&quot;edgeStyle&quot;:&quot;elbowEdgeStyle&quot;,&quot;elbow&quot;:&quot;vertical&quot;,&quot;curved&quot;:0,&quot;rounded&quot;:0};fillColor=#f8cecc;strokeColor=#b85450;movable=1;resizable=1;rotatable=1;deletable=1;editable=1;locked=0;connectable=1;" parent="1" vertex="1">
                    <mxGeometry x="371.81" y="1456" width="10" height="40" as="geometry"/>
                </mxCell>
                <mxCell id="UQ2MulQ3P8D4iQqI1dng-39" value="" style="endArrow=none;dashed=1;html=1;rounded=0;" parent="1" source="UQ2MulQ3P8D4iQqI1dng-42" target="UQ2MulQ3P8D4iQqI1dng-40" edge="1">
                    <mxGeometry width="50" height="50" relative="1" as="geometry">
                        <mxPoint x="377" y="2138" as="sourcePoint"/>
                        <mxPoint x="377" y="1488" as="targetPoint"/>
                    </mxGeometry>
                </mxCell>
                <mxCell id="UQ2MulQ3P8D4iQqI1dng-40" value="" style="html=1;points=[];perimeter=orthogonalPerimeter;outlineConnect=0;targetShapes=umlLifeline;portConstraint=eastwest;newEdgeStyle={&quot;edgeStyle&quot;:&quot;elbowEdgeStyle&quot;,&quot;elbow&quot;:&quot;vertical&quot;,&quot;curved&quot;:0,&quot;rounded&quot;:0};fillColor=#f8cecc;strokeColor=#b85450;movable=1;resizable=1;rotatable=1;deletable=1;editable=1;locked=0;connectable=1;" parent="1" vertex="1">
                    <mxGeometry x="371.81" y="1518" width="10" height="40" as="geometry"/>
                </mxCell>
                <mxCell id="UQ2MulQ3P8D4iQqI1dng-41" value="" style="endArrow=none;dashed=1;html=1;rounded=0;" parent="1" source="UQ2MulQ3P8D4iQqI1dng-50" target="UQ2MulQ3P8D4iQqI1dng-42" edge="1">
                    <mxGeometry width="50" height="50" relative="1" as="geometry">
                        <mxPoint x="377" y="2160" as="sourcePoint"/>
                        <mxPoint x="377" y="1580" as="targetPoint"/>
                    </mxGeometry>
                </mxCell>
                <mxCell id="UQ2MulQ3P8D4iQqI1dng-42" value="" style="html=1;points=[];perimeter=orthogonalPerimeter;outlineConnect=0;targetShapes=umlLifeline;portConstraint=eastwest;newEdgeStyle={&quot;edgeStyle&quot;:&quot;elbowEdgeStyle&quot;,&quot;elbow&quot;:&quot;vertical&quot;,&quot;curved&quot;:0,&quot;rounded&quot;:0};fillColor=#f8cecc;strokeColor=#b85450;movable=1;resizable=1;rotatable=1;deletable=1;editable=1;locked=0;connectable=1;" parent="1" vertex="1">
                    <mxGeometry x="371.81" y="1583" width="10" height="40" as="geometry"/>
                </mxCell>
                <mxCell id="UQ2MulQ3P8D4iQqI1dng-43" value="Entre message" style="text;html=1;strokeColor=none;fillColor=none;align=center;verticalAlign=middle;whiteSpace=wrap;rounded=0;" parent="1" vertex="1">
                    <mxGeometry x="187" y="1655" width="88.5" height="10" as="geometry"/>
                </mxCell>
                <mxCell id="UQ2MulQ3P8D4iQqI1dng-44" value="" style="endArrow=classic;html=1;rounded=0;exitX=1.1;exitY=0.2;exitDx=0;exitDy=0;exitPerimeter=0;" parent="1" edge="1">
                    <mxGeometry width="50" height="50" relative="1" as="geometry">
                        <mxPoint x="113" y="1668" as="sourcePoint"/>
                        <mxPoint x="371.80999999999995" y="1668" as="targetPoint"/>
                    </mxGeometry>
                </mxCell>
                <mxCell id="UQ2MulQ3P8D4iQqI1dng-45" value="" style="html=1;points=[];perimeter=orthogonalPerimeter;outlineConnect=0;targetShapes=umlLifeline;portConstraint=eastwest;newEdgeStyle={&quot;edgeStyle&quot;:&quot;elbowEdgeStyle&quot;,&quot;elbow&quot;:&quot;vertical&quot;,&quot;curved&quot;:0,&quot;rounded&quot;:0};fillColor=#d5e8d4;strokeColor=#82b366;movable=1;resizable=1;rotatable=1;deletable=1;editable=1;locked=0;connectable=1;" parent="1" vertex="1">
                    <mxGeometry x="103" y="1648" width="10" height="30" as="geometry"/>
                </mxCell>
                <mxCell id="UQ2MulQ3P8D4iQqI1dng-46" value="" style="html=1;points=[];perimeter=orthogonalPerimeter;outlineConnect=0;targetShapes=umlLifeline;portConstraint=eastwest;newEdgeStyle={&quot;edgeStyle&quot;:&quot;elbowEdgeStyle&quot;,&quot;elbow&quot;:&quot;vertical&quot;,&quot;curved&quot;:0,&quot;rounded&quot;:0};fillColor=#f8cecc;strokeColor=#b85450;movable=1;resizable=1;rotatable=1;deletable=1;editable=1;locked=0;connectable=1;" parent="1" vertex="1">
                    <mxGeometry x="371.81" y="1643" width="10" height="40" as="geometry"/>
                </mxCell>
                <mxCell id="UQ2MulQ3P8D4iQqI1dng-47" value="" style="endArrow=none;dashed=1;html=1;rounded=0;" parent="1" target="UQ2MulQ3P8D4iQqI1dng-48" edge="1">
                    <mxGeometry width="50" height="50" relative="1" as="geometry">
                        <mxPoint x="671" y="2020" as="sourcePoint"/>
                        <mxPoint x="671.44" y="1299" as="targetPoint"/>
                    </mxGeometry>
                </mxCell>
                <mxCell id="UQ2MulQ3P8D4iQqI1dng-48" value="" style="html=1;points=[];perimeter=orthogonalPerimeter;outlineConnect=0;targetShapes=umlLifeline;portConstraint=eastwest;newEdgeStyle={&quot;edgeStyle&quot;:&quot;elbowEdgeStyle&quot;,&quot;elbow&quot;:&quot;vertical&quot;,&quot;curved&quot;:0,&quot;rounded&quot;:0};fillColor=#dae8fc;strokeColor=#6c8ebf;movable=1;resizable=1;rotatable=1;deletable=1;editable=1;locked=0;connectable=1;" parent="1" vertex="1">
                    <mxGeometry x="666.8" y="1640" width="10" height="310" as="geometry"/>
                </mxCell>
                <mxCell id="UQ2MulQ3P8D4iQqI1dng-49" value="" style="endArrow=none;dashed=1;html=1;rounded=0;" parent="1" target="UQ2MulQ3P8D4iQqI1dng-50" edge="1">
                    <mxGeometry width="50" height="50" relative="1" as="geometry">
                        <mxPoint x="377" y="2010" as="sourcePoint"/>
                        <mxPoint x="377" y="1623" as="targetPoint"/>
                    </mxGeometry>
                </mxCell>
                <mxCell id="UQ2MulQ3P8D4iQqI1dng-50" value="" style="html=1;points=[];perimeter=orthogonalPerimeter;outlineConnect=0;targetShapes=umlLifeline;portConstraint=eastwest;newEdgeStyle={&quot;edgeStyle&quot;:&quot;elbowEdgeStyle&quot;,&quot;elbow&quot;:&quot;vertical&quot;,&quot;curved&quot;:0,&quot;rounded&quot;:0};fillColor=#f8cecc;strokeColor=#b85450;movable=1;resizable=1;rotatable=1;deletable=1;editable=1;locked=0;connectable=1;" parent="1" vertex="1">
                    <mxGeometry x="371.81" y="1759" width="10" height="40" as="geometry"/>
                </mxCell>
                <mxCell id="UQ2MulQ3P8D4iQqI1dng-51" value="E-mail envoyé" style="text;html=1;strokeColor=none;fillColor=none;align=center;verticalAlign=middle;whiteSpace=wrap;rounded=0;" parent="1" vertex="1">
                    <mxGeometry x="480" y="1750" width="97" height="30" as="geometry"/>
                </mxCell>
                <mxCell id="UQ2MulQ3P8D4iQqI1dng-52" value="" style="endArrow=classicThin;dashed=1;html=1;rounded=0;endFill=1;" parent="1" edge="1">
                    <mxGeometry width="50" height="50" relative="1" as="geometry">
                        <mxPoint x="665.5199999999999" y="1885.7" as="sourcePoint"/>
                        <mxPoint x="378.1" y="1885.57" as="targetPoint"/>
                        <Array as="points">
                            <mxPoint x="560.6699999999997" y="1885.7"/>
                        </Array>
                    </mxGeometry>
                </mxCell>
                <mxCell id="UQ2MulQ3P8D4iQqI1dng-53" value="Input formulaire vide" style="text;html=1;strokeColor=none;fillColor=none;align=center;verticalAlign=middle;whiteSpace=wrap;rounded=0;" parent="1" vertex="1">
                    <mxGeometry x="402.1" y="1861" width="230" height="30" as="geometry"/>
                </mxCell>
                <mxCell id="UQ2MulQ3P8D4iQqI1dng-54" value="" style="html=1;points=[];perimeter=orthogonalPerimeter;outlineConnect=0;targetShapes=umlLifeline;portConstraint=eastwest;newEdgeStyle={&quot;edgeStyle&quot;:&quot;elbowEdgeStyle&quot;,&quot;elbow&quot;:&quot;vertical&quot;,&quot;curved&quot;:0,&quot;rounded&quot;:0};fillColor=#d5e8d4;strokeColor=#82b366;movable=1;resizable=1;rotatable=1;deletable=1;editable=1;locked=0;connectable=1;" parent="1" vertex="1">
                    <mxGeometry x="104" y="1760" width="10" height="50" as="geometry"/>
                </mxCell>
                <mxCell id="UQ2MulQ3P8D4iQqI1dng-55" value="" style="endArrow=none;dashed=1;html=1;rounded=0;" parent="1" target="UQ2MulQ3P8D4iQqI1dng-56" edge="1">
                    <mxGeometry width="50" height="50" relative="1" as="geometry">
                        <mxPoint x="108" y="2010" as="sourcePoint"/>
                        <mxPoint x="108" y="1430" as="targetPoint"/>
                    </mxGeometry>
                </mxCell>
                <mxCell id="UQ2MulQ3P8D4iQqI1dng-56" value="" style="html=1;points=[];perimeter=orthogonalPerimeter;outlineConnect=0;targetShapes=umlLifeline;portConstraint=eastwest;newEdgeStyle={&quot;edgeStyle&quot;:&quot;elbowEdgeStyle&quot;,&quot;elbow&quot;:&quot;vertical&quot;,&quot;curved&quot;:0,&quot;rounded&quot;:0};fillColor=#d5e8d4;strokeColor=#82b366;movable=1;resizable=1;rotatable=1;deletable=1;editable=1;locked=0;connectable=1;" parent="1" vertex="1">
                    <mxGeometry x="103" y="1870" width="10" height="50" as="geometry"/>
                </mxCell>
                <mxCell id="UQ2MulQ3P8D4iQqI1dng-57" value="Affiche message Tout les champs doit être remplis" style="text;html=1;strokeColor=none;fillColor=none;align=center;verticalAlign=middle;whiteSpace=wrap;rounded=0;" parent="1" vertex="1">
                    <mxGeometry x="122" y="1884.5" width="234" height="15.5" as="geometry"/>
                </mxCell>
                <mxCell id="UQ2MulQ3P8D4iQqI1dng-58" value="" style="endArrow=classicThin;dashed=1;html=1;rounded=0;endFill=1;" parent="1" edge="1">
                    <mxGeometry width="50" height="50" relative="1" as="geometry">
                        <mxPoint x="665.7099999999999" y="1934.7" as="sourcePoint"/>
                        <mxPoint x="378.29" y="1934.57" as="targetPoint"/>
                        <Array as="points">
                            <mxPoint x="560.8599999999998" y="1934.7"/>
                        </Array>
                    </mxGeometry>
                </mxCell>
                <mxCell id="UQ2MulQ3P8D4iQqI1dng-59" value="Input formulaire pas au bon format" style="text;html=1;strokeColor=none;fillColor=none;align=center;verticalAlign=middle;whiteSpace=wrap;rounded=0;" parent="1" vertex="1">
                    <mxGeometry x="402.29" y="1910" width="230" height="30" as="geometry"/>
                </mxCell>
                <mxCell id="UQ2MulQ3P8D4iQqI1dng-60" value="" style="endArrow=classicThin;dashed=1;html=1;rounded=0;endFill=1;fontColor=#FF6666;strokeColor=#FF6666;" parent="1" edge="1">
                    <mxGeometry width="50" height="50" relative="1" as="geometry">
                        <mxPoint x="378" y="1970" as="sourcePoint"/>
                        <mxPoint x="114.40999999999997" y="1969.6299999999999" as="targetPoint"/>
                        <Array as="points">
                            <mxPoint x="269.21000000000015" y="1969.4299999999998"/>
                        </Array>
                    </mxGeometry>
                </mxCell>
                <mxCell id="UQ2MulQ3P8D4iQqI1dng-61" value="" style="html=1;points=[];perimeter=orthogonalPerimeter;outlineConnect=0;targetShapes=umlLifeline;portConstraint=eastwest;newEdgeStyle={&quot;edgeStyle&quot;:&quot;elbowEdgeStyle&quot;,&quot;elbow&quot;:&quot;vertical&quot;,&quot;curved&quot;:0,&quot;rounded&quot;:0};fillColor=#d5e8d4;strokeColor=#82b366;movable=1;resizable=1;rotatable=1;deletable=1;editable=1;locked=0;connectable=1;" parent="1" vertex="1">
                    <mxGeometry x="103" y="1930" width="10" height="50" as="geometry"/>
                </mxCell>
                <mxCell id="UQ2MulQ3P8D4iQqI1dng-62" value="Affiche message le format du champ n'est pas valide." style="text;html=1;strokeColor=none;fillColor=none;align=center;verticalAlign=middle;whiteSpace=wrap;rounded=0;" parent="1" vertex="1">
                    <mxGeometry x="114" y="1944.5" width="254" height="15.5" as="geometry"/>
                </mxCell>
                <mxCell id="UQ2MulQ3P8D4iQqI1dng-63" value="&lt;font color=&quot;#7d7d7d&quot;&gt;Les informations du formulaire ne sont pas bien rempli&lt;/font&gt;" style="text;html=1;strokeColor=none;fillColor=none;align=center;verticalAlign=middle;whiteSpace=wrap;rounded=0;" parent="1" vertex="1">
                    <mxGeometry x="57.49999999999994" y="1831" width="297" height="30" as="geometry"/>
                </mxCell>
            </root>
        </mxGraphModel>
    </diagram>
</mxfile>